<svg width="85" height="40" viewBox="0 0 85 40" fill="none" xmlns="http://www.w3.org/2000/svg">
<path d="M12.7594 7.28882C5.72 7.28882 0 12.9396 0 19.8834C0 26.8188 5.72 32.4695 12.7594 32.4695C19.7987 32.4695 25.5187 26.8188 25.5187 19.8834C25.5187 12.9396 19.7987 7.28882 12.7594 7.28882ZM12.7594 24.7533C10.0271 24.7533 7.81404 22.5701 7.81404 19.8834C7.81404 17.1882 10.0271 15.005 12.7594 15.005C15.4918 15.005 17.7047 17.1882 17.7047 19.8834C17.7047 22.5701 15.4918 24.7533 12.7594 24.7533Z" fill="white"/>
<path d="M50.9608 13.4767C48.6798 9.63952 44.4663 7.25488 39.9635 7.25488C33.9029 7.25488 28.6511 11.5035 27.468 17.3473C27.2977 18.1533 27.2126 18.993 27.2126 19.8244V39.0437C27.2126 39.4046 27.519 39.707 27.885 39.707C28.0979 39.707 28.2851 39.6145 28.4128 39.455L34.9584 31.4112C34.9584 31.4112 38.6952 33.1158 43.2575 31.9067C49.1477 30.3449 52.7058 25.3408 52.7058 19.8244C52.7058 17.5909 52.1016 15.3995 50.9608 13.4767ZM39.6314 24.7614C37.1716 24.6019 35.1712 22.6203 35.0266 20.1938C34.8479 17.3641 37.129 15.0131 39.955 15.0131C42.6873 15.0131 44.9004 17.1962 44.9004 19.8914C44.9004 22.696 42.5086 24.9377 39.6314 24.7614Z" fill="white"/>
<path d="M84.6187 11.1521H76.0537V32.259H84.6187V11.1521Z" fill="white"/>
<path d="M75.6726 4.60038C75.6726 7.1411 77.7606 9.20082 80.3364 9.20082C82.912 9.20082 85 7.1411 85 4.60038C85 2.05966 82.912 0 80.3364 0C77.7606 0 75.6726 2.05966 75.6726 4.60038Z" fill="white"/>
<path d="M65.611 15.1333C65.611 15.1333 65.618 19.2333 65.611 19.925C65.5513 25.8385 71.7729 24.5331 72.4439 24.4846L72.4365 32.009C71.7373 32.1995 70.9861 32.2871 70.3254 32.291C66.5013 32.3137 63.2925 31.2505 61.1251 29.1126C58.9421 27.0278 57.8333 24.3638 57.8333 21.2044V15.1547H54.0947C53.7211 15.1547 53.4179 14.8564 53.4171 14.4878L53.4169 14.4015C53.4166 14.249 53.4692 14.1009 53.5659 13.9819L64.3415 0.380652C64.4699 0.222669 64.664 0.130738 64.8692 0.130615C65.243 0.130431 65.5462 0.429102 65.5465 0.797809L65.5513 7.48809H72.4365V15.1333H65.611Z" fill="white"/>
</svg>
